<svg aria-hidden="true" style="position: absolute; width: 0; height: 0; overflow: hidden;" version="1.1" xmlns="http://www.w3.org/2000/svg" xmlns:xlink="http://www.w3.org/1999/xlink">
<defs>
<symbol id="icon-sort-20" viewBox="0 0 20 20">
<path d="M4 0.2l-4 4 0.9 0.9 2.9-2.9v17.8h1.3v-17.7l2.9 2.8 0.9-0.9-4-4c-0.2-0.3-0.6-0.3-0.9 0z"></path>
<path d="M15.1 0c-1.8 0-3.3 1.5-3.3 3.3v6h1.3v-2.6h4v2.7h1.3v-6c0.1-1.9-1.4-3.4-3.3-3.4zM17.1 5.3h-4v-2c0-1.1 0.9-2 2-2s2 0.9 2 2v2z"></path>
<path d="M15.8 10.7h-4v9.3h4c1.5 0 2.7-1.2 2.7-2.7 0-0.8-0.3-1.5-0.9-2 0.6-0.5 0.9-1.2 0.9-2 0-1.4-1.2-2.6-2.7-2.6zM15.8 18.7h-2.7v-2.7h2.7c0.7 0 1.3 0.6 1.3 1.3 0 0.8-0.6 1.4-1.3 1.4zM15.8 14.7h-2.7v-2.7h2.7c0.7 0 1.3 0.6 1.3 1.3 0 0.8-0.6 1.4-1.3 1.4z"></path>
</symbol>
<symbol id="icon-update-20" viewBox="0 0 20 20">
<path d="M9.482 2.5l-1.548-1.547 0.952-0.953 3.171 3.169-3.171 3.169-0.952-0.953 1.538-1.537c-3.96 0.15-7.125 3.407-7.125 7.399 0 4.088 3.318 7.405 7.41 7.405s7.41-3.317 7.41-7.405v-0.674h1.347v0.674c0 4.833-3.922 8.752-8.757 8.752s-8.757-3.919-8.757-8.752c0-4.741 3.774-8.602 8.482-8.748z"></path>
</symbol>
<symbol id="icon-fav-color-20" viewBox="0 0 20 20">
<path fill="#ff868e"  d="M5.381 1c-2.972 0-5.381 2.409-5.381 5.381 0 1.427 0.567 2.796 1.576 3.805l7.953 7.953c0.26 0.26 0.683 0.26 0.943 0l7.953-7.953c1.009-1.009 1.576-2.378 1.576-3.805 0-2.972-2.409-5.381-5.381-5.381-1.427 0-2.796 0.567-3.805 1.576l-0.815 0.815-0.815-0.815c-1.009-1.009-2.378-1.576-3.805-1.576z"></path>
</symbol>
<symbol id="icon-fav-20" viewBox="0 0 20 20">
<path d="M5.381 2.333c-2.235 0-4.047 1.812-4.047 4.047 0 1.073 0.426 2.103 1.185 2.862l7.481 7.481 7.481-7.481c0.759-0.759 1.186-1.788 1.186-2.862 0-2.235-1.812-4.047-4.047-4.047-1.073 0-2.103 0.426-2.862 1.185l-1.286 1.286c-0.26 0.26-0.682 0.26-0.943 0l-1.286-1.286c-0.759-0.759-1.788-1.185-2.862-1.185zM0 6.381c0-2.972 2.409-5.381 5.381-5.381 1.427 0 2.796 0.567 3.805 1.576l0.815 0.815 0.815-0.815c1.009-1.009 2.378-1.576 3.805-1.576 2.972 0 5.381 2.409 5.381 5.381 0 1.427-0.567 2.796-1.576 3.805l-7.953 7.953c-0.26 0.26-0.682 0.26-0.943 0l-7.953-7.953c-1.009-1.009-1.576-2.378-1.576-3.805z"></path>
</symbol>
<symbol id="icon-close-20" viewBox="0 0 20 20">
<path d="M9.057 10l-7.529-7.529 0.943-0.943 7.529 7.529 7.529-7.529 0.943 0.943-7.529 7.529 7.529 7.529-0.943 0.943-7.529-7.529-7.529 7.529-0.943-0.943 7.529-7.529z"></path>
</symbol>
<symbol id="icon-error-20" viewBox="0 0 20 20">
<path d="M0 10c0-5.523 4.477-10 10-10s10 4.477 10 10c0 5.523-4.477 10-10 10s-10-4.477-10-10zM10 1.333c-4.786 0-8.667 3.88-8.667 8.667s3.88 8.667 8.667 8.667c4.787 0 8.667-3.88 8.667-8.667s-3.88-8.667-8.667-8.667zM9.057 10l-3.529-3.529 0.943-0.943 3.529 3.529 3.529-3.529 0.943 0.943-3.529 3.529 3.529 3.529-0.943 0.943-3.529-3.529-3.529 3.529-0.943-0.943 3.529-3.529z"></path>
</symbol>
<symbol id="icon-success-20" viewBox="0 0 20 20">
<path d="M0 10c0-5.523 4.477-10 10-10s10 4.477 10 10c0 5.523-4.477 10-10 10s-10-4.477-10-10zM10 1.333c-4.786 0-8.667 3.88-8.667 8.667s3.88 8.667 8.667 8.667c4.787 0 8.667-3.88 8.667-8.667s-3.88-8.667-8.667-8.667zM15.187 7.083l-5.758 7.198-4.522-3.769 0.854-1.024 3.478 2.898 4.908-6.136 1.041 0.833z"></path>
</symbol>
<symbol id="icon-dislike-color-20" viewBox="0 0 20 20">
<path fill="#ffd280" d="M0 10c0-5.523 4.477-10 10-10s10 4.477 10 10c0 5.523-4.477 10-10 10s-10-4.477-10-10zM10 1.333c-4.786 0-8.667 3.88-8.667 8.667s3.88 8.667 8.667 8.667c4.787 0 8.667-3.88 8.667-8.667s-3.88-8.667-8.667-8.667zM6.667 8h-1.333v-1.333h1.333v1.333zM14.667 8h-1.333v-1.333h1.333v1.333zM5.067 13.467l0.4-0.533c2.267-3.022 6.8-3.022 9.067 0l0.4 0.533-1.067 0.8-0.4-0.533c-1.733-2.311-5.2-2.311-6.933 0l-0.4 0.533-1.067-0.8z"></path>
</symbol>
<symbol id="icon-like-color-20" viewBox="0 0 20 20">
<path fill="#97eab9" style="fill: var(--color3, #97eab9)" d="M0 10c0-5.523 4.477-10 10-10s10 4.477 10 10c0 5.523-4.477 10-10 10s-10-4.477-10-10zM10 1.333c-4.786 0-8.667 3.88-8.667 8.667s3.88 8.667 8.667 8.667c4.787 0 8.667-3.88 8.667-8.667s-3.88-8.667-8.667-8.667zM6.667 8h-1.333v-1.333h1.333v1.333zM14.667 8h-1.333v-1.333h1.333v1.333zM6.133 11.067l0.4 0.533c1.733 2.311 5.2 2.311 6.933 0l0.4-0.533 1.067 0.8-0.4 0.533c-2.267 3.022-6.8 3.022-9.067 0l-0.4-0.533 1.067-0.8z"></path>
</symbol>
<symbol id="icon-fav-color-30" viewBox="0 0 20 20">
<path fill="#ff868e" style="fill: var(--color2, #ff868e)" d="M5.381 1.333c-2.972 0-5.381 2.409-5.381 5.381 0 1.427 0.567 2.796 1.576 3.805l7.953 7.953c0.26 0.26 0.682 0.26 0.943 0l7.953-7.953c1.009-1.009 1.576-2.378 1.576-3.805 0-2.972-2.409-5.381-5.381-5.381-1.427 0-2.796 0.567-3.805 1.576l-0.815 0.815-0.815-0.815c-1.009-1.009-2.378-1.576-3.805-1.576z"></path>
</symbol>
<symbol id="icon-dislike-color-30" viewBox="0 0 20 20">
<path fill="#ffd280" style="fill: var(--color4, #ffd280)" d="M0 10c0-5.523 4.477-10 10-10s10 4.477 10 10c0 5.523-4.477 10-10 10s-10-4.477-10-10zM10 1.333c-4.786 0-8.667 3.88-8.667 8.667s3.88 8.667 8.667 8.667c4.786 0 8.667-3.88 8.667-8.667s-3.88-8.667-8.667-8.667zM6.667 8h-1.333v-1.333h1.333v1.333zM14.667 8h-1.333v-1.333h1.333v1.333zM5.067 13.467l0.4-0.533c2.267-3.022 6.8-3.022 9.067 0l0.4 0.533-1.067 0.8-0.4-0.533c-1.733-2.311-5.2-2.311-6.933 0l-0.4 0.533-1.067-0.8z"></path>
</symbol>
<symbol id="icon-like-color-30" viewBox="0 0 20 20">
<path fill="#97eab9" style="fill: var(--color3, #97eab9)" d="M0 10c0-5.523 4.477-10 10-10s10 4.477 10 10c0 5.523-4.477 10-10 10s-10-4.477-10-10zM10 1.333c-4.786 0-8.667 3.88-8.667 8.667s3.88 8.667 8.667 8.667c4.786 0 8.667-3.88 8.667-8.667s-3.88-8.667-8.667-8.667zM6.667 8h-1.333v-1.333h1.333v1.333zM14.667 8h-1.333v-1.333h1.333v1.333zM6.133 11.067l0.4 0.533c1.733 2.311 5.2 2.311 6.933 0l0.4-0.533 1.067 0.8-0.4 0.533c-2.267 3.022-6.8 3.022-9.067 0l-0.4-0.533 1.067-0.8z"></path>
</symbol>
<symbol id="icon-dislike-30" viewBox="0 0 20 20">
<path d="M0 10c0-5.523 4.477-10 10-10s10 4.477 10 10c0 5.523-4.477 10-10 10s-10-4.477-10-10zM10 1.333c-4.786 0-8.667 3.88-8.667 8.667s3.88 8.667 8.667 8.667c4.786 0 8.667-3.88 8.667-8.667s-3.88-8.667-8.667-8.667zM6.667 8h-1.333v-1.333h1.333v1.333zM14.667 8h-1.333v-1.333h1.333v1.333zM5.067 13.467l0.4-0.533c2.267-3.022 6.8-3.022 9.067 0l0.4 0.533-1.067 0.8-0.4-0.533c-1.733-2.311-5.2-2.311-6.933 0l-0.4 0.533-1.067-0.8z"></path>
</symbol>
<symbol id="icon-fav-30" viewBox="0 0 20 20">
<path d="M5.381 2.667c-2.235 0-4.047 1.812-4.047 4.047 0 1.073 0.426 2.103 1.185 2.862l7.481 7.481 7.481-7.481c0.759-0.759 1.185-1.789 1.185-2.862 0-2.235-1.812-4.047-4.047-4.047-1.073 0-2.103 0.426-2.862 1.185l-1.286 1.286c-0.26 0.26-0.682 0.26-0.943 0l-1.286-1.286c-0.759-0.759-1.789-1.185-2.862-1.185zM0 6.714c0-2.972 2.409-5.381 5.381-5.381 1.427 0 2.796 0.567 3.805 1.576l0.815 0.815 0.815-0.815c1.009-1.009 2.378-1.576 3.805-1.576 2.972 0 5.381 2.409 5.381 5.381 0 1.427-0.567 2.796-1.576 3.805l-7.953 7.953c-0.26 0.26-0.682 0.26-0.943 0l-7.953-7.953c-1.009-1.009-1.576-2.378-1.576-3.805z"></path>
</symbol>
<symbol id="icon-like-30" viewBox="0 0 20 20">
<path d="M0 10c0-5.523 4.477-10 10-10s10 4.477 10 10c0 5.523-4.477 10-10 10s-10-4.477-10-10zM10 1.333c-4.786 0-8.667 3.88-8.667 8.667s3.88 8.667 8.667 8.667c4.786 0 8.667-3.88 8.667-8.667s-3.88-8.667-8.667-8.667zM6.667 8h-1.333v-1.333h1.333v1.333zM14.667 8h-1.333v-1.333h1.333v1.333zM6.133 11.067l0.4 0.533c1.733 2.311 5.2 2.311 6.933 0l0.4-0.533 1.067 0.8-0.4 0.533c-2.267 3.022-6.8 3.022-9.067 0l-0.4-0.533 1.067-0.8z"></path>
</symbol>
<symbol id="icon-dropdown-12" viewBox="0 0 20 20">
<path d="M19.667 4.667c-0.5-0.5-1.5-0.5-2 0l-7.667 7.667-7.667-7.667c-0.5-0.5-1.5-0.5-2 0s-0.5 1.5 0 2l8.667 8.667c0.333 0.167 0.667 0.333 1 0.333s0.667-0.167 1-0.333l8.667-8.667c0.5-0.5 0.5-1.333 0-2z"></path>
</symbol>
<symbol id="icon-upload-16" viewBox="0 0 20 20">
<path d="M9.125 2.875v12.625h1.5v-12.75l3.625 3.375 1-1.125-5.375-5-5.125 5.125 1.125 1z"></path>
<path d="M18.25 9.375v9.125h-16.75v-9.125h-1.5v10.625h19.75v-10.625z"></path>
</symbol>
<symbol id="icon-search-20" viewBox="0 0 20 20">
<path d="M19.4 18.2l-4.8-5c1.2-1.5 1.9-3.3 1.9-5.2 0-4.5-3.6-8.1-8.1-8.1s-8.1 3.7-8.1 8.2 3.6 8.1 8.1 8.1c1.7 0 3.3-0.5 4.6-1.5l4.8 5c0.2 0.2 0.5 0.3 0.8 0.3s0.5-0.1 0.7-0.3c0.5-0.4 0.5-1.1 0.1-1.5zM8.4 14c-3.3 0-6-2.7-6-6s2.7-6 6-6 6 2.7 6 6-2.7 6-6 6z"></path>
</symbol>
<symbol id="icon-back-20" viewBox="0 0 20 20">
<path d="M4.7 11l8.6 8.6c0.5 0.5 1.4 0.5 2 0 0.5-0.5 0.5-1.4 0-2l-7.6-7.6 7.6-7.6c0.5-0.5 0.5-1.4 0-2-0.5-0.5-1.4-0.5-2 0l-8.6 8.6c-0.3 0.3-0.4 0.6-0.4 1s0.1 0.7 0.4 1z"></path>
</symbol>
<symbol id="icon-sort-revert-color-20" viewBox="0 0 20 20">
<path fill="#ff868e" style="fill: var(--color2, #ff868e)" d="M5.1 17.7v-17.7h-1.3v17.7l-2.9-2.9-0.9 1 4 4c0.1 0.1 0.3 0.2 0.5 0.2s0.3-0.1 0.5-0.2l4-4-1-0.9-2.9 2.8z"></path>
<path fill="#ff868e" style="fill: var(--color2, #ff868e)" d="M15.8 10.7h-4v9.3h4c1.5 0 2.7-1.2 2.7-2.7 0-0.8-0.3-1.5-0.9-2 0.6-0.5 0.9-1.2 0.9-2 0-1.4-1.2-2.6-2.7-2.6zM15.8 18.7h-2.7v-2.7h2.7c0.7 0 1.3 0.6 1.3 1.3 0 0.8-0.6 1.4-1.3 1.4zM15.8 14.7h-2.7v-2.7h2.7c0.7 0 1.3 0.6 1.3 1.3 0 0.8-0.6 1.4-1.3 1.4z"></path>
<path fill="#ff868e" style="fill: var(--color2, #ff868e)" d="M15.1 0c-1.8 0-3.3 1.5-3.3 3.3v6h1.3v-2.6h4v2.7h1.3v-6c0.1-1.9-1.4-3.4-3.3-3.4zM17.1 5.3h-4v-2c0-1.1 0.9-2 2-2s2 0.9 2 2v2z"></path>
</symbol>
<symbol id="icon-sort-color-20" viewBox="0 0 20 20">
<path fill="#ff868e" style="fill: var(--color2, #ff868e)" d="M4 0.2l-4 4 0.9 0.9 2.9-2.9v17.8h1.3v-17.7l2.9 2.8 0.9-0.9-4-4c-0.2-0.3-0.6-0.3-0.9 0z"></path>
<path fill="#ff868e" style="fill: var(--color2, #ff868e)" d="M15.8 10.7h-4v9.3h4c1.5 0 2.7-1.2 2.7-2.7 0-0.8-0.3-1.5-0.9-2 0.6-0.5 0.9-1.2 0.9-2 0-1.4-1.2-2.6-2.7-2.6zM15.8 18.7h-2.7v-2.7h2.7c0.7 0 1.3 0.6 1.3 1.3 0 0.8-0.6 1.4-1.3 1.4zM15.8 14.7h-2.7v-2.7h2.7c0.7 0 1.3 0.6 1.3 1.3 0 0.8-0.6 1.4-1.3 1.4z"></path>
<path fill="#ff868e" style="fill: var(--color2, #ff868e)" d="M15.1 0c-1.8 0-3.3 1.5-3.3 3.3v6h1.3v-2.6h4v2.7h1.3v-6c0.1-1.9-1.4-3.4-3.3-3.4zM17.1 5.3h-4v-2c0-1.1 0.9-2 2-2s2 0.9 2 2v2z"></path>
</symbol>
<symbol id="icon-sort-revert-20" viewBox="0 0 20 20">
<path d="M15.8 10.7h-4v9.3h4c1.5 0 2.7-1.2 2.7-2.7 0-0.8-0.3-1.5-0.9-2 0.6-0.5 0.9-1.2 0.9-2 0-1.4-1.2-2.6-2.7-2.6zM15.8 18.7h-2.7v-2.7h2.7c0.7 0 1.3 0.6 1.3 1.3 0 0.8-0.6 1.4-1.3 1.4zM15.8 14.7h-2.7v-2.7h2.7c0.7 0 1.3 0.6 1.3 1.3 0 0.8-0.6 1.4-1.3 1.4z"></path>
<path d="M5.1 17.7v-17.7h-1.3v17.7l-2.9-2.9-0.9 1 4 4c0.1 0.1 0.3 0.2 0.5 0.2s0.3-0.1 0.5-0.2l4-4-1-0.9-2.9 2.8z"></path>
<path d="M15.1 0c-1.8 0-3.3 1.5-3.3 3.3v6h1.3v-2.6h4v2.7h1.3v-6c0.1-1.9-1.4-3.4-3.3-3.4zM17.1 5.3h-4v-2c0-1.1 0.9-2 2-2s2 0.9 2 2v2z"></path>
</symbol>
</defs>
</svg>
